<?xml version="1.0" encoding="utf-8"?><!-- Uploaded to: SVG Repo, www.svgrepo.com, Generator: SVG Repo Mixer Tools -->
<svg fill="#000000" width="800px" height="800px" viewBox="0 0 24 24" id="twitter" data-name="Flat Line" xmlns="http://www.w3.org/2000/svg" class="icon flat-line"><path id="secondary" d="M18.94,7.91A3.49,3.49,0,0,0,12,8.17C8.46,9.63,5,6,5,6c-1,6,2,8.75,2,8.75C5.64,16,3,16,3,16s1.58,3,8.58,3S19,11,19,11a3.08,3.08,0,0,0,2-3.3A7.9,7.9,0,0,1,18.94,7.91Z" style="fill: rgb(44, 169, 188); stroke-width: 2;"></path><path id="primary" d="M18.94,7.91A3.49,3.49,0,0,0,12,8.17C8.46,9.63,5,6,5,6c-1,6,2,8.75,2,8.75C5.64,16,3,16,3,16s1.58,3,8.58,3S19,11,19,11a3.08,3.08,0,0,0,2-3.3A7.9,7.9,0,0,1,18.94,7.91Z" style="fill: none; stroke: rgb(0, 0, 0); stroke-linecap: round; stroke-linejoin: round; stroke-width: 2;"></path></svg>